<svg width="93" height="93" viewBox="0 0 93 93" fill="none" xmlns="http://www.w3.org/2000/svg">
<g filter="url(#filter0_d)">
<path d="M46.1982 10.869C26.6905 10.869 10.8764 26.6433 10.8764 46.1019C10.8764 65.5606 26.6905 81.3349 46.1982 81.3349H46.802C66.3097 81.3349 82.1238 65.5606 82.1238 46.1019C82.1238 26.6433 66.3097 10.869 46.802 10.869H46.1982Z" fill="url(#paint0_linear)"/>
</g>
<g filter="url(#filter1_d)">
<path d="M11.5445 57.5919L11.5445 34.7541C11.5446 28.6509 13.9752 22.7977 18.3017 18.4821C22.6282 14.1665 28.4962 11.7421 34.6148 11.7421H58.3841C64.5026 11.7421 70.3706 14.1666 74.697 18.4822C79.0235 22.7978 81.4541 28.651 81.4542 34.7541V57.5919C81.4542 63.6951 79.0236 69.5483 74.6971 73.864C70.3706 78.1796 64.5027 80.6041 58.3841 80.6042H34.6148C28.4962 80.6042 22.6282 78.1797 18.3017 73.864C13.9751 69.5484 11.5445 63.6952 11.5445 57.5919H11.5445Z" fill="url(#paint1_linear)"/>
</g>
<path d="M9.74992 41.8701L19.5736 20.8562C22.1594 15.3248 26.8422 11.0446 32.5919 8.95714C38.3415 6.86971 44.6869 7.14606 50.2323 9.7254L72.0912 19.8927C74.837 21.1699 77.3037 22.974 79.3505 25.202C81.3973 27.4301 82.9841 30.0385 84.0203 32.8782C85.0565 35.718 85.5218 38.7336 85.3897 41.7527C85.2575 44.7718 84.5305 47.7355 83.2501 50.4743L73.4264 71.4882C70.8406 77.0197 66.1578 81.2999 60.4081 83.3873C54.6585 85.4747 48.3131 85.1984 42.7677 82.619L20.9088 72.4517C15.3634 69.8723 11.0724 65.2013 8.97972 59.4662C6.88703 53.731 7.16408 47.4015 9.74992 41.8701Z" fill="url(#paint2_linear)"/>
<path d="M11.5352 47.0213L16.6503 27.9913C18.235 22.0956 22.1028 17.0694 27.4028 14.0183C32.7028 10.9672 39.0007 10.1411 44.9113 11.7219L65.1709 17.1401C71.0815 18.7208 76.1204 22.5789 79.1793 27.8655C82.2382 33.1521 83.0663 39.4342 81.4817 45.3299L76.3666 64.3599C74.7819 70.2556 70.9141 75.2819 65.6141 78.3331C60.3141 81.3842 54.0161 82.2103 48.1055 80.6295L27.8458 75.2113C21.9353 73.6305 16.8963 69.7725 13.8374 64.4858C10.7786 59.1992 9.95043 52.917 11.5352 47.0213Z" fill="url(#paint3_linear)"/>
<path d="M33.5474 44.7238C32.7316 44.7238 32.0178 44.5578 31.406 44.2259C30.7941 43.894 30.3218 43.4228 29.9891 42.8125C29.6671 42.2022 29.5061 41.4849 29.5061 40.6604C29.5061 39.836 29.6778 39.1132 30.0213 38.4922C30.3755 37.8605 30.8693 37.3733 31.5026 37.0307C32.1359 36.6881 32.8658 36.5168 33.6923 36.5168C34.1217 36.5168 34.5511 36.5757 34.9804 36.6934C35.4205 36.8112 35.8123 36.9772 36.1558 37.1913C36.4886 37.3948 36.6549 37.6946 36.6549 38.0907C36.6549 38.3691 36.5905 38.5993 36.4617 38.7813C36.3329 38.9526 36.1612 39.0383 35.9465 39.0383C35.807 39.0383 35.6728 39.0169 35.544 38.9741C35.4259 38.9205 35.2649 38.8456 35.0609 38.7492C34.8355 38.6314 34.6316 38.5404 34.4491 38.4762C34.2773 38.4119 34.0788 38.3798 33.8534 38.3798C33.2522 38.3798 32.7907 38.5725 32.4687 38.958C32.1574 39.3327 32.0017 39.8842 32.0017 40.6122C32.0017 41.3403 32.1574 41.8971 32.4687 42.2825C32.7907 42.668 33.2522 42.8607 33.8534 42.8607C34.0788 42.8607 34.2773 42.834 34.4491 42.7804C34.6208 42.7162 34.8302 42.6198 35.077 42.4913C35.281 42.395 35.442 42.3254 35.5601 42.2825C35.6781 42.229 35.807 42.2022 35.9465 42.2022C36.1504 42.2022 36.3168 42.2932 36.4456 42.4753C36.5852 42.6573 36.6549 42.8875 36.6549 43.1659C36.6549 43.562 36.4886 43.8565 36.1558 44.0492C35.8123 44.2633 35.4152 44.4293 34.9643 44.5471C34.5135 44.6649 34.0412 44.7238 33.5474 44.7238Z" fill="white"/>
<path d="M41.407 36.5168C42.5663 36.5168 43.425 36.8005 43.9832 37.368C44.5414 37.9248 44.8205 38.7813 44.8205 39.9377V43.5674C44.8205 43.9207 44.7185 44.1991 44.5146 44.4025C44.3106 44.5953 44.0262 44.6916 43.6612 44.6916C43.3177 44.6916 43.0386 44.5899 42.8239 44.3865C42.62 44.1723 42.518 43.8993 42.518 43.5674V43.455C42.357 43.8511 42.0887 44.1616 41.713 44.3865C41.3373 44.6113 40.8972 44.7238 40.3927 44.7238C39.856 44.7238 39.3676 44.6167 38.9275 44.4025C38.4981 44.1884 38.1546 43.8886 37.897 43.5031C37.6501 43.1177 37.5267 42.6894 37.5267 42.2183C37.5267 41.6401 37.6716 41.1851 37.9614 40.8531C38.262 40.5212 38.7396 40.2803 39.3944 40.1304C40.0492 39.9805 40.9455 39.9056 42.0833 39.9056H42.5019V39.6165C42.5019 39.1668 42.3999 38.8402 42.196 38.6368C42.0028 38.4333 41.6754 38.3316 41.2138 38.3316C40.7523 38.3316 40.0867 38.4922 39.2173 38.8134C38.9704 38.9312 38.7611 38.9901 38.5893 38.9901C38.3532 38.9901 38.1653 38.9098 38.0258 38.7492C37.8863 38.5779 37.8165 38.3584 37.8165 38.0907C37.8165 37.8766 37.8648 37.6999 37.9614 37.5607C38.058 37.4215 38.2136 37.293 38.4283 37.1753C38.804 36.9718 39.2602 36.8112 39.7969 36.6934C40.3444 36.5757 40.8811 36.5168 41.407 36.5168ZM40.924 43.0534C41.3963 43.0534 41.7774 42.8982 42.0672 42.5877C42.357 42.2665 42.5019 41.8543 42.5019 41.351V41.078H42.2282C41.3587 41.078 40.7469 41.1476 40.3927 41.2868C40.0492 41.426 39.8774 41.6776 39.8774 42.0416C39.8774 42.3414 39.974 42.5877 40.1673 42.7804C40.3712 42.9624 40.6235 43.0534 40.924 43.0534Z" fill="white"/>
<path d="M47.8619 44.6916C47.5077 44.6916 47.2125 44.5953 46.9764 44.4025C46.751 44.2098 46.6383 43.9261 46.6383 43.5513V34.3325C46.6383 33.9578 46.751 33.674 46.9764 33.4813C47.2125 33.2886 47.5077 33.1922 47.8619 33.1922C48.2054 33.1922 48.4899 33.2886 48.7153 33.4813C48.9515 33.674 49.0695 33.9578 49.0695 34.3325V43.5513C49.0695 43.9261 48.9515 44.2098 48.7153 44.4025C48.4899 44.5953 48.2054 44.6916 47.8619 44.6916Z" fill="white"/>
<path d="M60.672 36.5168C61.5307 36.5168 62.1909 36.7791 62.6525 37.3037C63.114 37.8177 63.3448 38.6635 63.3448 39.8413V43.5513C63.3448 43.9261 63.2321 44.2098 63.0067 44.4025C62.7813 44.5953 62.4914 44.6916 62.1372 44.6916C61.7937 44.6916 61.5039 44.5953 61.2678 44.4025C61.0316 44.2098 60.9135 43.9261 60.9135 43.5513V39.8092C60.9135 39.2953 60.8223 38.9366 60.6398 38.7331C60.4681 38.519 60.1997 38.4119 59.8348 38.4119C59.3839 38.4119 59.0243 38.5672 58.756 38.8777C58.4876 39.1882 58.3535 39.6218 58.3535 40.1786V43.5513C58.3535 43.9261 58.2407 44.2098 58.0153 44.4025C57.7899 44.5953 57.5001 44.6916 57.1459 44.6916C56.8024 44.6916 56.5126 44.5953 56.2764 44.4025C56.0403 44.2098 55.9222 43.9261 55.9222 43.5513V39.8092C55.9222 39.2953 55.8309 38.9366 55.6485 38.7331C55.4767 38.519 55.2084 38.4119 54.8434 38.4119C54.3926 38.4119 54.033 38.5672 53.7646 38.8777C53.4963 39.1882 53.3621 39.6218 53.3621 40.1786V43.5513C53.3621 43.9261 53.244 44.2098 53.0079 44.4025C52.7825 44.5953 52.498 44.6916 52.1545 44.6916C51.811 44.6916 51.5212 44.5953 51.2851 44.4025C51.0489 44.2098 50.9308 43.9261 50.9308 43.5513V37.6571C50.9308 37.3037 51.0489 37.0307 51.2851 36.838C51.532 36.6453 51.8271 36.5489 52.1706 36.5489C52.4927 36.5489 52.761 36.6453 52.9757 36.838C53.1904 37.02 53.2977 37.277 53.2977 37.6089V37.7695C53.5553 37.3626 53.8881 37.0521 54.296 36.838C54.7146 36.6238 55.1869 36.5168 55.7129 36.5168C56.2818 36.5168 56.7594 36.6346 57.1459 36.8701C57.543 37.095 57.849 37.4644 58.0636 37.9783C58.3105 37.5286 58.6594 37.1753 59.1102 36.9183C59.5718 36.6506 60.0924 36.5168 60.672 36.5168Z" fill="white"/>
<path d="M30.9375 58.576C30.2828 58.576 29.7139 58.5225 29.2308 58.4154C28.7478 58.3084 28.3238 58.137 27.9588 57.9015C27.7978 57.8051 27.6744 57.6766 27.5885 57.516C27.5026 57.3554 27.4597 57.1734 27.4597 56.97C27.4597 56.7237 27.5295 56.5203 27.669 56.3597C27.8086 56.1884 27.9803 56.1027 28.1843 56.1027C28.3238 56.1027 28.4633 56.1295 28.6029 56.183C28.7424 56.2258 28.8873 56.2794 29.0376 56.3436C29.3382 56.4828 29.6334 56.5952 29.9232 56.6809C30.213 56.7558 30.5726 56.7933 31.0019 56.7933C31.3776 56.7933 31.6675 56.7344 31.8714 56.6166C32.0861 56.4989 32.1934 56.3383 32.1934 56.1348C32.1934 55.9849 32.1451 55.8671 32.0485 55.7815C31.9626 55.6851 31.7963 55.5995 31.5494 55.5245C31.3025 55.4496 30.9107 55.3586 30.374 55.2515C29.4187 55.0695 28.7317 54.7964 28.3131 54.4324C27.8944 54.0684 27.6851 53.5598 27.6851 52.9066C27.6851 52.4248 27.83 51.9912 28.1198 51.6057C28.4204 51.2203 28.8283 50.9205 29.3435 50.7063C29.8588 50.4815 30.4384 50.3691 31.0825 50.3691C31.544 50.3691 31.9948 50.4279 32.4349 50.5457C32.875 50.6635 33.2668 50.8295 33.6103 51.0436C33.9431 51.247 34.1095 51.5468 34.1095 51.943C34.1095 52.2 34.0397 52.4141 33.9001 52.5854C33.7606 52.7567 33.5889 52.8424 33.3849 52.8424C33.138 52.8424 32.8428 52.746 32.4994 52.5533C32.231 52.4141 31.9841 52.3124 31.7587 52.2482C31.544 52.1732 31.2864 52.1357 30.9858 52.1357C30.6531 52.1357 30.3901 52.2 30.1969 52.3285C30.0037 52.4462 29.9071 52.6122 29.9071 52.8263C29.9071 53.0512 30.0198 53.2225 30.2452 53.3403C30.4706 53.4581 30.9053 53.5758 31.5494 53.6936C32.2686 53.8328 32.8321 54.0041 33.24 54.2075C33.6479 54.4003 33.9431 54.6465 34.1256 54.9463C34.308 55.2461 34.3993 55.6262 34.3993 56.0866C34.3993 56.8468 34.0826 57.4518 33.4493 57.9015C32.8267 58.3512 31.9895 58.576 30.9375 58.576Z" fill="white"/>
<path d="M37.0126 58.5439C36.6583 58.5439 36.3632 58.4475 36.127 58.2548C35.9016 58.0621 35.7889 57.7784 35.7889 57.4036V48.1848C35.7889 47.8101 35.9016 47.5263 36.127 47.3336C36.3632 47.1409 36.6583 47.0445 37.0126 47.0445C37.3561 47.0445 37.6405 47.1409 37.8659 47.3336C38.1021 47.5263 38.2201 47.8101 38.2201 48.1848V57.4036C38.2201 57.7784 38.1021 58.0621 37.8659 58.2548C37.6405 58.4475 37.3561 58.5439 37.0126 58.5439Z" fill="white"/>
<path d="M46.4253 56.1027C46.64 56.1027 46.8117 56.1884 46.9405 56.3597C47.0801 56.531 47.1499 56.7505 47.1499 57.0182C47.1499 57.2002 47.0962 57.3715 46.9888 57.5321C46.8815 57.682 46.7312 57.8105 46.538 57.9175C46.173 58.1103 45.7491 58.2709 45.266 58.3994C44.783 58.5171 44.3375 58.576 43.9296 58.576C43.0709 58.576 42.3195 58.4101 41.6755 58.0782C41.0422 57.7462 40.5538 57.2751 40.2103 56.6648C39.8668 56.0438 39.695 55.3157 39.695 54.4806C39.695 53.6775 39.8614 52.9655 40.1942 52.3445C40.5269 51.7235 40.9885 51.2417 41.5789 50.8991C42.1692 50.5457 42.8401 50.3691 43.5915 50.3691C44.3107 50.3691 44.9386 50.5297 45.4753 50.8509C46.0228 51.1614 46.4468 51.6111 46.7473 52.2C47.0479 52.7782 47.1982 53.4581 47.1982 54.2397C47.1982 54.4752 47.1391 54.6572 47.021 54.7857C46.9137 54.9035 46.7581 54.9624 46.5541 54.9624H42.0458C42.1209 55.5941 42.3142 56.0545 42.6254 56.3436C42.9367 56.622 43.3822 56.7612 43.9618 56.7612C44.2731 56.7612 44.5522 56.7237 44.7991 56.6488C45.046 56.5738 45.3197 56.4721 45.6202 56.3436C45.7705 56.2794 45.9154 56.2258 46.055 56.183C46.1945 56.1295 46.318 56.1027 46.4253 56.1027ZM43.6559 52.0394C43.1943 52.0394 42.824 52.1893 42.5449 52.4891C42.2658 52.7782 42.0995 53.2011 42.0458 53.7578H45.1533C45.1211 53.1904 44.9762 52.7621 44.7186 52.473C44.4717 52.1839 44.1175 52.0394 43.6559 52.0394Z" fill="white"/>
<path d="M55.0105 56.1027C55.2251 56.1027 55.3969 56.1884 55.5257 56.3597C55.6652 56.531 55.735 56.7505 55.735 57.0182C55.735 57.2002 55.6813 57.3715 55.574 57.5321C55.4667 57.682 55.3164 57.8105 55.1232 57.9175C54.7582 58.1103 54.3342 58.2709 53.8512 58.3994C53.3682 58.5171 52.9227 58.576 52.5148 58.576C51.6561 58.576 50.9047 58.4101 50.2606 58.0782C49.6273 57.7462 49.1389 57.2751 48.7954 56.6648C48.4519 56.0438 48.2802 55.3157 48.2802 54.4806C48.2802 53.6775 48.4466 52.9655 48.7793 52.3445C49.1121 51.7235 49.5737 51.2417 50.164 50.8991C50.7544 50.5457 51.4253 50.3691 52.1767 50.3691C52.8959 50.3691 53.5238 50.5297 54.0605 50.8509C54.6079 51.1614 55.0319 51.6111 55.3325 52.2C55.633 52.7782 55.7833 53.4581 55.7833 54.2397C55.7833 54.4752 55.7243 54.6572 55.6062 54.7857C55.4989 54.9035 55.3432 54.9624 55.1393 54.9624H50.631C50.7061 55.5941 50.8993 56.0545 51.2106 56.3436C51.5219 56.622 51.9674 56.7612 52.547 56.7612C52.8583 56.7612 53.1374 56.7237 53.3843 56.6488C53.6311 56.5738 53.9049 56.4721 54.2054 56.3436C54.3557 56.2794 54.5006 56.2258 54.6401 56.183C54.7797 56.1295 54.9031 56.1027 55.0105 56.1027ZM52.2411 52.0394C51.7795 52.0394 51.4092 52.1893 51.1301 52.4891C50.851 52.7782 50.6846 53.2011 50.631 53.7578H53.7385C53.7063 53.1904 53.5614 52.7621 53.3037 52.473C53.0569 52.1839 52.7026 52.0394 52.2411 52.0394Z" fill="white"/>
<path d="M62.1465 50.3691C62.8228 50.3691 63.4239 50.5457 63.9498 50.8991C64.4866 51.2417 64.8998 51.7289 65.1896 52.3606C65.4902 52.9816 65.6405 53.699 65.6405 54.5127C65.6405 55.3264 65.4902 56.0438 65.1896 56.6648C64.8998 57.2751 64.4919 57.7462 63.966 58.0782C63.44 58.4101 62.8335 58.576 62.1465 58.576C61.6098 58.576 61.1214 58.469 60.6813 58.2548C60.252 58.03 59.9192 57.7195 59.6831 57.3233V60.3588C59.6831 60.68 59.5757 60.9369 59.361 61.1297C59.1464 61.3224 58.8619 61.4188 58.5077 61.4188C58.132 61.4188 57.8261 61.317 57.5899 61.1136C57.3645 60.9102 57.2518 60.6425 57.2518 60.3106V51.5415C57.2518 51.1989 57.3591 50.9258 57.5738 50.7224C57.7992 50.5083 58.0944 50.4012 58.4594 50.4012C58.8243 50.4012 59.1142 50.5083 59.3288 50.7224C59.5435 50.9258 59.6509 51.1989 59.6509 51.5415V51.67C59.887 51.2631 60.2251 50.9472 60.6652 50.7224C61.1053 50.4868 61.5991 50.3691 62.1465 50.3691ZM61.4381 56.7291C62.007 56.7291 62.4471 56.5417 62.7584 56.1669C63.0697 55.7815 63.2253 55.2301 63.2253 54.5127C63.2253 53.7846 63.0697 53.2225 62.7584 52.8263C62.4471 52.4195 62.007 52.216 61.4381 52.216C60.8692 52.216 60.4291 52.4141 60.1178 52.8103C59.8065 53.1957 59.6509 53.7525 59.6509 54.4806C59.6509 55.198 59.8065 55.7547 60.1178 56.1509C60.4291 56.5363 60.8692 56.7291 61.4381 56.7291Z" fill="white"/>
<defs>
<filter id="filter0_d" x="4.87637" y="7.86896" width="83.2474" height="82.4659" filterUnits="userSpaceOnUse" color-interpolation-filters="sRGB">
<feFlood flood-opacity="0" result="BackgroundImageFix"/>
<feColorMatrix in="SourceAlpha" type="matrix" values="0 0 0 0 0 0 0 0 0 0 0 0 0 0 0 0 0 0 127 0"/>
<feOffset dy="3"/>
<feGaussianBlur stdDeviation="3"/>
<feColorMatrix type="matrix" values="0 0 0 0 0 0 0 0 0 0 0 0 0 0 0 0 0 0 0.161 0"/>
<feBlend mode="normal" in2="BackgroundImageFix" result="effect1_dropShadow"/>
<feBlend mode="normal" in="SourceGraphic" in2="effect1_dropShadow" result="shape"/>
</filter>
<filter id="filter1_d" x="5.54453" y="8.74207" width="81.9096" height="80.8621" filterUnits="userSpaceOnUse" color-interpolation-filters="sRGB">
<feFlood flood-opacity="0" result="BackgroundImageFix"/>
<feColorMatrix in="SourceAlpha" type="matrix" values="0 0 0 0 0 0 0 0 0 0 0 0 0 0 0 0 0 0 127 0"/>
<feOffset dy="3"/>
<feGaussianBlur stdDeviation="3"/>
<feColorMatrix type="matrix" values="0 0 0 0 0 0 0 0 0 0 0 0 0 0 0 0 0 0 0.161 0"/>
<feBlend mode="normal" in2="BackgroundImageFix" result="effect1_dropShadow"/>
<feBlend mode="normal" in="SourceGraphic" in2="effect1_dropShadow" result="shape"/>
</filter>
<linearGradient id="paint0_linear" x1="72.4342" y1="99.0923" x2="17.6472" y2="0.557946" gradientUnits="userSpaceOnUse">
<stop stop-color="#00E2FF"/>
<stop offset="1" stop-color="#8900FF"/>
</linearGradient>
<linearGradient id="paint1_linear" x1="71.9464" y1="97.9574" x2="18.5216" y2="1.48111" gradientUnits="userSpaceOnUse">
<stop stop-color="#00E2FF"/>
<stop offset="1" stop-color="#8900FF"/>
</linearGradient>
<linearGradient id="paint2_linear" x1="14.6618" y1="31.3631" x2="78.2809" y2="61.104" gradientUnits="userSpaceOnUse">
<stop stop-color="#00E2FF"/>
<stop offset="1" stop-color="#8900FF"/>
</linearGradient>
<linearGradient id="paint3_linear" x1="14.0927" y1="37.5064" x2="78.9022" y2="54.9267" gradientUnits="userSpaceOnUse">
<stop stop-color="#341A7C"/>
<stop offset="1" stop-color="#150A34"/>
</linearGradient>
</defs>
</svg>
